<svg width="71" height="23" viewBox="0 0 71 23" fill="none" xmlns="http://www.w3.org/2000/svg">
<path d="M0 10.5V0H3V6H6V4.5H7.5V3H10.5V4.5H9V6H7.5V7.5H9V9H10.5V10.5H7.5V9H6V7.5H3V10.5H0ZM13.5 10.5V9H12V3H15V9H19.5V3H22.5V10.5H13.5ZM28.5 4.5H30V6H28.5V10.5H25.5V3H28.5V4.5ZM34.5 3V4.5H30V3H34.5ZM36 10.5V3H45V4.5H46.5V10.5H43.5V4.5H42V10.5H39V4.5H37.5V10.5H36ZM49.5 10.5V9H48V4.5H49.5V3H57V4.5H58.5V7.5H51V9H57V10.5H49.5ZM51 6H55.5V4.5H51V6ZM64.5 10.5V4.5H61.5V3H64.5V0H67.5V3H70.5V4.5H67.5V10.5H64.5ZM4.5 16.5H6V18H4.5V22.5H1.5V15H4.5V16.5ZM10.5 15V16.5H6V15H10.5ZM13.5 22.5V21H12V19.5H13.5V18H19.5V16.5H13.5V15H21V16.5H22.5V22.5H13.5ZM15 21H19.5V19.5H15V21ZM24 22.5V12H27V18H30V16.5H31.5V15H34.5V16.5H33V18H31.5V19.5H33V21H34.5V22.5H31.5V21H30V19.5H27V22.5H24ZM36 22.5V12H39V15H45V16.5H46.5V22.5H43.5V16.5H39V22.5H36ZM49.5 22.5V21H48V19.5H49.5V18H55.5V16.5H49.5V15H57V16.5H58.5V22.5H49.5ZM51 21H55.5V19.5H51V21ZM64.5 22.5V16.5H61.5V15H64.5V12H67.5V15H70.5V16.5H67.5V22.5H64.5Z" fill="white"/>
</svg>
